# xmcd
#
# Track frame offsets: 
#        225
#        20386
#        34743
#        53326
#        70177
#        89979
#        110487
#        129934
#        152072
#        174156
#        191094
#        209953
#        222873
#        237612
#        256434
#        279680
#
# Disc length: 3847 seconds
#
# Revision: 0
# Processed by: cddbd v1.5.1PL0 Copyright (c) Steve Scherf et al.
# Submitted via: ExactAudioCopy v0.95a5
#
DISCID=f00f0410
DTITLE=The Aces - The Aces and Their Guests
DYEAR=1900
DGENRE=Blues
TTITLE0=Rock Me Baby
TTITLE1=You're The One
TTITLE2=Baby What You Want Me To Do
TTITLE3=Someday Baby
TTITLE4=Off The Wall
TTITLE5=Worried About My Baby
TTITLE6=Bobby's Rock
TTITLE7=Kansas City
TTITLE8=Honky Tonk
TTITLE9=Don't Throw Your Love On Me So Strong
TTITLE10=C.C.Rider
TTITLE11=Sweet Home Chicago
TTITLE12=It's My Life Baby
TTITLE13=It Hurts Me Too
TTITLE14=Hide Away
TTITLE15=Tribute To Little Walter
EXTD=
EXTT0=
EXTT1=
EXTT2=
EXTT3=
EXTT4=
EXTT5=
EXTT6=
EXTT7=
EXTT8=
EXTT9=
EXTT10=
EXTT11=
EXTT12=
EXTT13=
EXTT14=
EXTT15=
PLAYORDER=
